<?xml version="1.0" standalone="no"?>
<!DOCTYPE svg PUBLIC "-//W3C//DTD SVG 20010904//EN"
 "http://www.w3.org/TR/2001/REC-SVG-20010904/DTD/svg10.dtd">
<svg version="1.0" xmlns="http://www.w3.org/2000/svg"
 width="64.000000pt" height="64.000000pt" viewBox="0 0 64.000000 64.000000"
 preserveAspectRatio="xMidYMid meet">

<g transform="translate(0.000000,64.000000) scale(0.100000,-0.100000)"
fill="#000000" stroke="none">
<path d="M65 631 c-11 -5 -29 -19 -40 -31 -19 -21 -20 -36 -20 -281 l0 -259
28 -27 27 -28 260 0 260 0 27 28 28 27 0 260 0 260 -28 27 -27 28 -248 2
c-136 1 -256 -2 -267 -6z m263 -191 l3 -124 55 -58 c60 -63 61 -70 10 -117
-35 -33 -43 -21 -11 18 l27 31 -39 47 -38 46 -3 -81 c-4 -107 -22 -107 -22 0
l0 83 -42 -42 -41 -41 27 -32 c38 -46 23 -51 -21 -8 l-36 36 57 57 56 57 0 92
c0 50 -4 108 -9 129 -8 33 -7 38 7 35 15 -3 17 -21 20 -128z m4 -355 c0 -5 -5
-11 -11 -13 -6 -2 -11 4 -11 13 0 9 5 15 11 13 6 -2 11 -8 11 -13z"/>
</g>
</svg>
